<!DOCTYPE svg PUBLIC "-//W3C//DTD SVG 1.1//EN" "http://www.w3.org/Graphics/SVG/1.1/DTD/svg11.dtd">
<!-- Uploaded to: SVG Repo, www.svgrepo.com, Transformed by: SVG Repo Mixer Tools -->
<svg fill="#ff4000" width="800px" height="800px" viewBox="0 0 24 24" role="img" xmlns="http://www.w3.org/2000/svg" stroke="#ff4000">
<g id="SVGRepo_bgCarrier" stroke-width="0"/>
<g id="SVGRepo_tracerCarrier" stroke-linecap="round" stroke-linejoin="round"/>
<g id="SVGRepo_iconCarrier">
<path d="M23.071 8.409a6.09 6.09 0 0 0-5.396-3.228H.584A.589.589 0 0 0 .17 6.184L3.894 9.93a1.752 1.752 0 0 0 1.242.516h12.049a1.554 1.554 0 1 1 .031 3.108H8.91a.589.589 0 0 0-.415 1.003l3.725 3.747a1.75 1.75 0 0 0 1.242.516h3.757c4.887 0 8.584-5.225 5.852-10.413"/>
</g>
</svg>